<mxfile host="app.diagrams.net" modified="2024-02-01T17:13:46.201Z" agent="Mozilla/5.0 (Windows NT 10.0; Win64; x64) AppleWebKit/537.36 (KHTML, like Gecko) Chrome/121.0.0.0 Safari/537.36" version="23.0.1" etag="Q76ulPsCCM9QC8GJ7btB" type="github">
  <diagram name="PÃ¡gina-1" id="bGxu8jEuKhY6Vvk4F5Ce">
    <mxGraphModel>
      <root>
        <mxCell id="0" />
        <mxCell id="1" parent="0" />
      </root>
    </mxGraphModel>
  </diagram>
</mxfile>
